<svg xmlns="http://www.w3.org/2000/svg" viewBox="0 0 128 128" shape-rendering="crispEdges">
  <!-- Feather top plume -->
  <rect x="88" y="4" width="4" height="4" fill="#1a1a1a"/>
  <rect x="92" y="4" width="4" height="4" fill="#444"/>
  <rect x="96" y="4" width="4" height="4" fill="#555"/>
  <rect x="92" y="8" width="4" height="4" fill="#1a1a1a"/>
  <rect x="96" y="8" width="4" height="4" fill="#333"/>
  <rect x="100" y="8" width="4" height="4" fill="#555"/>
  <rect x="104" y="8" width="4" height="4" fill="#666"/>

  <!-- Feather upper -->
  <rect x="80" y="12" width="4" height="4" fill="#1a1a1a"/>
  <rect x="84" y="12" width="4" height="4" fill="#1a1a1a"/>
  <rect x="88" y="12" width="4" height="4" fill="#333"/>
  <rect x="92" y="12" width="4" height="4" fill="#1a1a1a"/>
  <rect x="96" y="12" width="4" height="4" fill="#1a1a1a"/>
  <rect x="100" y="12" width="4" height="4" fill="#444"/>
  <rect x="104" y="12" width="4" height="4" fill="#555"/>

  <rect x="76" y="16" width="4" height="4" fill="#444"/>
  <rect x="80" y="16" width="4" height="4" fill="#1a1a1a"/>
  <rect x="84" y="16" width="4" height="4" fill="#333"/>
  <rect x="88" y="16" width="4" height="4" fill="#1a1a1a"/>
  <rect x="92" y="16" width="4" height="4" fill="#444"/>
  <rect x="96" y="16" width="4" height="4" fill="#1a1a1a"/>
  <rect x="100" y="16" width="4" height="4" fill="#555"/>

  <!-- Feather mid-upper -->
  <rect x="72" y="20" width="4" height="4" fill="#555"/>
  <rect x="76" y="20" width="4" height="4" fill="#1a1a1a"/>
  <rect x="80" y="20" width="4" height="4" fill="#1a1a1a"/>
  <rect x="84" y="20" width="4" height="4" fill="#1a1a1a"/>
  <rect x="88" y="20" width="4" height="4" fill="#333"/>
  <rect x="92" y="20" width="4" height="4" fill="#1a1a1a"/>
  <rect x="96" y="20" width="4" height="4" fill="#555"/>

  <rect x="68" y="24" width="4" height="4" fill="#555"/>
  <rect x="72" y="24" width="4" height="4" fill="#1a1a1a"/>
  <rect x="76" y="24" width="4" height="4" fill="#333"/>
  <rect x="80" y="24" width="4" height="4" fill="#1a1a1a"/>
  <rect x="84" y="24" width="4" height="4" fill="#444"/>
  <rect x="88" y="24" width="4" height="4" fill="#1a1a1a"/>
  <rect x="92" y="24" width="4" height="4" fill="#555"/>

  <!-- Feather middle -->
  <rect x="64" y="28" width="4" height="4" fill="#666"/>
  <rect x="68" y="28" width="4" height="4" fill="#1a1a1a"/>
  <rect x="72" y="28" width="4" height="4" fill="#1a1a1a"/>
  <rect x="76" y="28" width="4" height="4" fill="#1a1a1a"/>
  <rect x="80" y="28" width="4" height="4" fill="#333"/>
  <rect x="84" y="28" width="4" height="4" fill="#1a1a1a"/>
  <rect x="88" y="28" width="4" height="4" fill="#666"/>

  <rect x="60" y="32" width="4" height="4" fill="#666"/>
  <rect x="64" y="32" width="4" height="4" fill="#1a1a1a"/>
  <rect x="68" y="32" width="4" height="4" fill="#333"/>
  <rect x="72" y="32" width="4" height="4" fill="#1a1a1a"/>
  <rect x="76" y="32" width="4" height="4" fill="#444"/>
  <rect x="80" y="32" width="4" height="4" fill="#1a1a1a"/>
  <rect x="84" y="32" width="4" height="4" fill="#666"/>

  <!-- Feather mid-lower -->
  <rect x="56" y="36" width="4" height="4" fill="#666"/>
  <rect x="60" y="36" width="4" height="4" fill="#1a1a1a"/>
  <rect x="64" y="36" width="4" height="4" fill="#1a1a1a"/>
  <rect x="68" y="36" width="4" height="4" fill="#1a1a1a"/>
  <rect x="72" y="36" width="4" height="4" fill="#333"/>
  <rect x="76" y="36" width="4" height="4" fill="#1a1a1a"/>

  <rect x="52" y="40" width="4" height="4" fill="#666"/>
  <rect x="56" y="40" width="4" height="4" fill="#1a1a1a"/>
  <rect x="60" y="40" width="4" height="4" fill="#333"/>
  <rect x="64" y="40" width="4" height="4" fill="#1a1a1a"/>
  <rect x="68" y="40" width="4" height="4" fill="#444"/>
  <rect x="72" y="40" width="4" height="4" fill="#1a1a1a"/>

  <!-- Feather lower -->
  <rect x="48" y="44" width="4" height="4" fill="#555"/>
  <rect x="52" y="44" width="4" height="4" fill="#1a1a1a"/>
  <rect x="56" y="44" width="4" height="4" fill="#1a1a1a"/>
  <rect x="60" y="44" width="4" height="4" fill="#1a1a1a"/>
  <rect x="64" y="44" width="4" height="4" fill="#333"/>
  <rect x="68" y="44" width="4" height="4" fill="#1a1a1a"/>

  <rect x="44" y="48" width="4" height="4" fill="#555"/>
  <rect x="48" y="48" width="4" height="4" fill="#1a1a1a"/>
  <rect x="52" y="48" width="4" height="4" fill="#333"/>
  <rect x="56" y="48" width="4" height="4" fill="#1a1a1a"/>
  <rect x="60" y="48" width="4" height="4" fill="#1a1a1a"/>

  <!-- Feather to shaft -->
  <rect x="40" y="52" width="4" height="4" fill="#444"/>
  <rect x="44" y="52" width="4" height="4" fill="#1a1a1a"/>
  <rect x="48" y="52" width="4" height="4" fill="#1a1a1a"/>
  <rect x="52" y="52" width="4" height="4" fill="#1a1a1a"/>
  <rect x="56" y="52" width="4" height="4" fill="#444"/>

  <rect x="36" y="56" width="4" height="4" fill="#444"/>
  <rect x="40" y="56" width="4" height="4" fill="#1a1a1a"/>
  <rect x="44" y="56" width="4" height="4" fill="#333"/>
  <rect x="48" y="56" width="4" height="4" fill="#1a1a1a"/>
  <rect x="52" y="56" width="4" height="4" fill="#555"/>

  <!-- Shaft upper -->
  <rect x="32" y="60" width="4" height="4" fill="#555"/>
  <rect x="36" y="60" width="4" height="4" fill="#1a1a1a"/>
  <rect x="40" y="60" width="4" height="4" fill="#1a1a1a"/>
  <rect x="44" y="60" width="4" height="4" fill="#1a1a1a"/>

  <rect x="32" y="64" width="4" height="4" fill="#666"/>
  <rect x="36" y="64" width="4" height="4" fill="#1a1a1a"/>
  <rect x="40" y="64" width="4" height="4" fill="#333"/>

  <!-- Shaft lower -->
  <rect x="28" y="68" width="4" height="4" fill="#555"/>
  <rect x="32" y="68" width="4" height="4" fill="#1a1a1a"/>
  <rect x="36" y="68" width="4" height="4" fill="#1a1a1a"/>

  <rect x="24" y="72" width="4" height="4" fill="#666"/>
  <rect x="28" y="72" width="4" height="4" fill="#1a1a1a"/>
  <rect x="32" y="72" width="4" height="4" fill="#333"/>

  <!-- Nib upper -->
  <rect x="20" y="76" width="4" height="4" fill="#555"/>
  <rect x="24" y="76" width="4" height="4" fill="#1a1a1a"/>
  <rect x="28" y="76" width="4" height="4" fill="#1a1a1a"/>

  <rect x="20" y="80" width="4" height="4" fill="#666"/>
  <rect x="24" y="80" width="4" height="4" fill="#1a1a1a"/>

  <!-- Nib lower -->
  <rect x="16" y="84" width="4" height="4" fill="#555"/>
  <rect x="20" y="84" width="4" height="4" fill="#1a1a1a"/>

  <rect x="12" y="88" width="4" height="4" fill="#666"/>
  <rect x="16" y="88" width="4" height="4" fill="#1a1a1a"/>

  <!-- Nib tip -->
  <rect x="12" y="92" width="4" height="4" fill="#1a1a1a"/>

  <rect x="8" y="96" width="4" height="4" fill="#1a1a1a"/>

  <!-- Ink splash -->
  <rect x="4" y="100" width="4" height="4" fill="#1a1a1a"/>
  <rect x="8" y="100" width="4" height="4" fill="#333"/>
  <rect x="4" y="104" width="4" height="4" fill="#333"/>
  <rect x="8" y="104" width="4" height="4" fill="#1a1a1a"/>
  <rect x="12" y="104" width="4" height="4" fill="#444"/>
  <rect x="4" y="108" width="4" height="4" fill="#444"/>
  <rect x="8" y="108" width="4" height="4" fill="#333"/>
</svg>
